HIERARCHY
ROOT hip
{
  OFFSET 0 0 0
  CHANNELS 6 Xposition Yposition Zposition Zrotation Yrotation Xrotation
  JOINT abdomen
  {
    OFFSET 0 20.6881 -0.73152
    CHANNELS 3 Zrotation Xrotation Yrotation
    JOINT chest
    {
      OFFSET 0 11.7043 -0.48768
      CHANNELS 3 Zrotation Xrotation Yrotation
      JOINT neck
      {
        OFFSET 0 22.1894 -2.19456
        CHANNELS 3 Zrotation Xrotation Yrotation
        JOINT head
        {
          OFFSET -0.24384 7.07133 1.2192
          CHANNELS 3 Zrotation Xrotation Yrotation
          JOINT leftEye
          {
            OFFSET 4.14528 8.04674 8.04672
            CHANNELS 3 Zrotation Xrotation Yrotation
            End Site
            {
              OFFSET 1 0 0
            }
          }
          JOINT rightEye
          {
            OFFSET -3.6576 8.04674 8.04672
            CHANNELS 3 Zrotation Xrotation Yrotation
            End Site
            {
              OFFSET 1 0 0
            }
          }
        }
      }
      JOINT rCollar
      {
        OFFSET -2.68224 19.2634 -4.8768
        CHANNELS 3 Zrotation Xrotation Yrotation
        JOINT rShldr
        {
          OFFSET -8.77824 -1.95073 1.46304
          CHANNELS 3 Zrotation Xrotation Yrotation
          JOINT rForeArm
          {
            OFFSET -28.1742 -1.7115 0.48768
            CHANNELS 3 Zrotation Xrotation Yrotation
            JOINT rHand
            {
              OFFSET -22.5879 0.773209 7.07136
              CHANNELS 3 Zrotation Xrotation Yrotation
              JOINT rThumb1
              {
                OFFSET -1.2192 -0.487915 3.41376
                CHANNELS 3 Zrotation Xrotation Yrotation
                JOINT rThumb2
                {
                  OFFSET -3.37035 -0.52449 3.41376
                  CHANNELS 3 Zrotation Xrotation Yrotation
                  End Site
                  {
                    OFFSET -1.78271 -1.18214 1.43049
                  }
                }
              }
              JOINT rIndex1
              {
                OFFSET -7.75947 0.938293 5.60832
                CHANNELS 3 Zrotation Xrotation Yrotation
                JOINT rIndex2
                {
                  OFFSET -2.54057 -0.884171 1.56538
                  CHANNELS 3 Zrotation Xrotation Yrotation
                  End Site
                  {
                    OFFSET -1.62519 -0.234802 1.16502
                  }
                }
              }
              JOINT rMid1
              {
                OFFSET -8.24714 1.18213 3.41376
                CHANNELS 3 Zrotation Xrotation Yrotation
                JOINT rMid2
                {
                  OFFSET -3.10165 -0.590103 1.0647
                  CHANNELS 3 Zrotation Xrotation Yrotation
                  End Site
                  {
                    OFFSET -2.48547 -0.328903 0.83742
                  }
                }
              }
              JOINT rRing1
              {
                OFFSET -8.82822 0.546677 1.51678
                CHANNELS 3 Zrotation Xrotation Yrotation
                JOINT rRing2
                {
                  OFFSET -2.60934 -0.819778 -0.0198488
                  CHANNELS 3 Zrotation Xrotation Yrotation
                  End Site
                  {
                    OFFSET -2.33842 -0.294052 0.168128
                  }
                }
              }
              JOINT rPinky1
              {
                OFFSET -8.27202 -0.0477905 -0.4584
                CHANNELS 3 Zrotation Xrotation Yrotation
                JOINT rPinky2
                {
                  OFFSET -1.82734 -0.647385 -0.700984
                  CHANNELS 3 Zrotation Xrotation Yrotation
                  End Site
                  {
                    OFFSET -1.69225 -0.51767 -0.607171
                  }
                }
              }
            }
          }
        }
      }
      JOINT lCollar
      {
        OFFSET 2.68224 19.2634 -4.8768
        CHANNELS 3 Zrotation Xrotation Yrotation
        JOINT lShldr
        {
          OFFSET 8.77824 -1.95073 1.46304
          CHANNELS 3 Zrotation Xrotation Yrotation
          JOINT lForeArm
          {
            OFFSET 28.1742 -1.7115 0.48768
            CHANNELS 3 Zrotation Xrotation Yrotation
            JOINT lHand
            {
              OFFSET 22.5879 0.773209 7.07136
              CHANNELS 3 Zrotation Xrotation Yrotation
              JOINT lThumb1
              {
                OFFSET 1.2192 -0.487915 3.41376
                CHANNELS 3 Zrotation Xrotation Yrotation
                JOINT lThumb2
                {
                  OFFSET 3.37035 -0.52449 3.41376
                  CHANNELS 3 Zrotation Xrotation Yrotation
                  End Site
                  {
                    OFFSET 1.78271 -1.18214 1.43049
                  }
                }
              }
              JOINT lIndex1
              {
                OFFSET 7.75947 0.938293 5.60832
                CHANNELS 3 Zrotation Xrotation Yrotation
                JOINT lIndex2
                {
                  OFFSET 2.54057 -0.884171 1.56538
                  CHANNELS 3 Zrotation Xrotation Yrotation
                  End Site
                  {
                    OFFSET 1.62519 -0.234802 1.16502
                  }
                }
              }
              JOINT lMid1
              {
                OFFSET 8.24714 1.18213 3.41376
                CHANNELS 3 Zrotation Xrotation Yrotation
                JOINT lMid2
                {
                  OFFSET 3.10165 -0.590103 1.0647
                  CHANNELS 3 Zrotation Xrotation Yrotation
                  End Site
                  {
                    OFFSET 2.48547 -0.328903 0.83742
                  }
                }
              }
              JOINT lRing1
              {
                OFFSET 8.82822 0.546677 1.51678
                CHANNELS 3 Zrotation Xrotation Yrotation
                JOINT lRing2
                {
                  OFFSET 2.60934 -0.819778 -0.0198488
                  CHANNELS 3 Zrotation Xrotation Yrotation
                  End Site
                  {
                    OFFSET 2.33842 -0.294052 0.168128
                  }
                }
              }
              JOINT lPinky1
              {
                OFFSET 8.27202 -0.0477905 -0.4584
                CHANNELS 3 Zrotation Xrotation Yrotation
                JOINT lPinky2
                {
                  OFFSET 1.82734 -0.647385 -0.700984
                  CHANNELS 3 Zrotation Xrotation Yrotation
                  End Site
                  {
                    OFFSET 1.69225 -0.51767 -0.607171
                  }
                }
              }
            }
          }
        }
      }
    }
  }
  JOINT rButtock
  {
    OFFSET -8.77824 4.35084 1.2192
    CHANNELS 3 Zrotation Xrotation Yrotation
    JOINT rThigh
    {
      OFFSET 0 -1.70687 -2.19456
      CHANNELS 3 Zrotation Xrotation Yrotation
      JOINT rShin
      {
        OFFSET 0 -36.8199 0.73152
        CHANNELS 3 Zrotation Xrotation Yrotation
        JOINT rFoot
        {
          OFFSET 0.73152 -45.1104 -5.12064
          CHANNELS 3 Zrotation Xrotation Yrotation
          End Site
          {
            OFFSET -1.1221 -3.69964 12.103
          }
        }
      }
    }
  }
  JOINT lButtock
  {
    OFFSET 8.77824 4.35084 1.2192
    CHANNELS 3 Zrotation Xrotation Yrotation
    JOINT lThigh
    {
      OFFSET 0 -1.70687 -2.19456
      CHANNELS 3 Zrotation Xrotation Yrotation
      JOINT lShin
      {
        OFFSET 0 -36.8199 0.73152
        CHANNELS 3 Zrotation Xrotation Yrotation
        JOINT lFoot
        {
          OFFSET -0.73152 -45.1104 -5.12064
          CHANNELS 3 Zrotation Xrotation Yrotation
          End Site
          {
            OFFSET 1.1221 -3.69964 12.103
          }
        }
      }
    }
  }
}
MOTION
Frames:	4
Frame Time:	0.03333
-39.7528 62.90860000000001 -10.6464 175.070928 53.724921 179.882098 -3.494881 7.047912 -45.55775 2.488057 -6.723233 35.437785 -2.835346 37.922979 141.504218 -22.45948 32.133228 -175.81485 -15.185112 -13.217568 81.993465 173.37082 4.156829 -64.14461 7.12138 -12.767233 -1.533172 56.275153 15.186831 -13.092877 0.685008 1.877431 37.272048 -3.628346 21.432813 2.056191 -169.600001 -24.282452 94.088895 -25.300583 -20.818581 -5.628498 0.676529 12.702855 12.172974 -171.469881 4.624962 91.166147 -6.048667 -61.570441 -12.847146 -4.392655 -49.076045 -45.598262 -121.559245 -18.595543 -138.996925 -62.476358 -23.62798 -123.292279 26.803483 14.65079 -19.180316 157.357361 -47.90296 -173.721952 4.753184 16.946579 4.444114 -54.495049 39.828314 -28.892519 14.197317 -16.769494 -31.949437 -2.094535 -0.281776 8.044168 -140.102737 -40.954347 -53.453145 173.545842 56.49353 -72.041165 158.286473 -33.933166 -84.532231 -12.815848 38.964507 -25.535864 153.364623 -15.800583 -133.24524 168.40701 -17.594583 -152.149472 97.50599 50.773635 -101.972363 -19.484797 9.033726 -24.250162 155.80921 -16.829999 173.544323 26.421915 -9.945086 -34.245551 -101.673975 54.825594 -35.405695 117.96199 -15.316801 71.340209 46.376934 44.579981 -95.324368 123.133576 9.801357 -30.441735 -117.532444 45.452691 -49.398286 171.517526 63.468028 1.416741 13.074267 46.517457 -177.841264 78.569387 19.682952 159.740638
-40.936699999999995 62.5739 -10.7009 175.07083 53.960066 179.998411 -3.337833 6.867237 -52.64282 3.189731 -6.416471 42.374983 -22.479175 27.323576 -51.474284 31.455603 -4.078089 17.979019 -16.187693 -13.506692 79.567108 173.51731 4.068565 -64.19174 -5.492167 34.401185 12.576215 58.09271 -1.328348 22.933781 17.145424 -26.242668 43.549639 -9.856538 38.363354 3.30249 14.902566 -0.090923 -6.088846 -43.885676 14.602529 36.391621 1.060025 12.876518 12.676852 44.992274 -41.037346 33.415009 159.363585 -81.720786 145.037792 10.951516 69.390722 -30.51925 33.607099 53.027642 -25.520335 -64.937928 14.485267 33.960356 27.151765 13.947521 -18.597815 178.351117 13.212881 172.95134 19.783257 -64.16082 35.041916 -149.303708 45.215556 100.924455 -152.499527 11.321257 -117.188568 -179.052005 15.520956 -137.831526 158.450222 -17.038229 -79.734019 -29.353044 -67.339274 -86.428319 -162.971827 -44.711009 -69.273012 165.364351 -31.31615 -76.085808 -25.093767 -21.875802 -8.99424 -21.911782 -30.131595 -3.512808 -6.114477 -63.651355 -11.317477 147.213898 -16.05002 148.144942 1.7026 -25.060097 -32.081922 -20.898857 11.050517 44.938866 139.596545 61.236734 28.910509 174.874872 6.206181 -155.884419 -54.568079 -50.028635 -136.901105 -5.604226 25.114134 -86.990206 -37.85012 1.176863 -4.492059 55.722619 4.651877 -98.203297 -39.419297 -21.974675 13.361395 115.450037 -48.760036 -171.306977
-42.1479 62.3463 -10.703 175.136227 52.959586 179.876301 -3.113329 3.967919 -119.392572 4.437784 -1.575045 108.699704 -12.379922 21.079294 11.101206 1.60091 -22.541383 -48.16206 -16.896958 -13.918965 78.828273 177.88375 1.266493 -61.79406 -27.955607 57.755618 35.615593 71.945746 -23.563715 46.490225 -8.430192 -3.756224 34.904833 -0.211118 10.689175 1.645217 -171.011273 -24.039907 94.502831 -150.54148 1.97691 99.814444 -133.538819 -8.597603 112.218719 -131.088279 74.714224 119.604122 -6.419834 -59.551243 -11.707115 -156.3381 43.05646 170.565529 -105.17698 -32.24775 -124.961017 78.783884 7.459197 -33.384579 -165.411388 51.796265 -115.495041 -124.699224 4.228039 -74.992254 157.299944 -29.100344 -177.882775 173.510059 -57.566486 127.490925 -137.167716 53.312655 -150.250488 -178.193546 10.229804 -138.397601 34.902441 28.131857 -34.075304 -39.125737 37.774115 -6.326947 -8.193246 4.469347 -35.731651 -174.011292 23.738904 -131.606627 -22.804924 -15.036149 -7.793591 162.227129 -11.976757 -138.341285 -14.221055 -78.874851 -12.935869 16.480905 -19.196192 40.303103 9.627116 2.385437 -36.785868 -149.956659 58.534239 69.214615 88.825871 36.882943 37.367635 -142.185414 -1.308107 -95.756426 -60.978343 17.046367 29.638757 -41.778426 -56.81412 54.222174 -74.335546 14.769415 -30.554828 91.182988 34.241015 -2.515957 -15.732429 33.607115 50.575803 29.130246 -17.98763 -3.654203
-43.3851 62.208600000000004 -10.6791 175.241635 51.586326 179.667751 -3.316609 3.473981 -128.573817 3.832865 -1.515418 117.570018 -16.720095 39.569685 -145.90975 15.78017 38.70902 105.012137 -16.375856 -13.658517 79.542857 -177.400613 -1.427555 -57.544423 6.216726 -6.696436 0.608062 55.248562 -1.928174 -9.289244 173.965363 -14.114344 106.933574 168.065459 -13.906983 145.419039 -12.969381 24.39286 3.695154 -123.16445 -14.975058 85.149519 -11.119584 20.886355 20.673134 -35.841541 11.412369 12.511229 167.515383 -67.614342 153.079904 -13.029024 -2.168492 -33.1745 -134.458658 -0.327588 -148.394508 95.964348 27.881397 -76.311787 17.925886 4.407486 -20.296124 -170.624143 5.821524 166.071528 4.431122 12.931501 7.484496 110.616861 -36.801323 -161.006315 41.520788 -41.933999 95.509905 -142.262145 -58.315555 -116.736542 -103.618369 -39.544628 -30.044346 -169.855752 -21.727648 -168.408273 138.230428 -25.94871 -90.744243 -15.570332 48.8422 -18.955786 151.718288 -21.957772 -137.165613 162.912849 -6.805752 -152.182678 112.895184 49.450698 -119.542113 -51.425435 -48.195769 -36.610814 77.936883 58.10117 -108.030941 2.423647 63.978186 -75.64051 -51.844245 30.023121 -35.015642 78.422545 -48.274085 -67.877747 -61.331318 -21.655287 40.006803 143.89331 8.721638 -54.330963 175.620072 71.264465 -18.221422 -111.039267 48.22981 -7.387149 29.010353 28.852253 -134.394572 163.409775 -27.956641 -116.031798
